<svg xmlns="http://www.w3.org/2000/svg">
  <defs>
    <path id="chevron.down" d="M24.5566-25.6523c.372396 0 .723306-.0716147 1.05273-.214844 .329427-.143229.63737-.365235.923828-.666016l16.3281-16.7148c.486979-.486979.730469-1.07422.730469-1.76172 0-.486979-.111003-.923829-.333008-1.31055 -.222005-.386719-.526367-.694661-.913086-.923828 -.386719-.229167-.816405-.34375-1.28906-.34375 -.70182 0-1.31771.257813-1.84766.773438l-15.7051 16.1348h2.08398l-15.7266-16.1348c-.529948-.515625-1.14583-.773438-1.84766-.773438 -.472656 0-.898763.114583-1.27832.34375 -.379557.229167-.683919.537109-.913086.923828 -.229167.386719-.34375.823569-.34375 1.31055 0 .34375.0608723.662435.182617.956055 .121745.29362.304362.569336.547852.827148l16.3281 16.6934c.601563.587239 1.27474.880859 2.01953.880859Z" fill="currentColor"></path>
  </defs>
  <defs>
    <path id="chevron.right" d="M8.03516-34.5898c.70182 0 1.29622-.24349 1.7832-.730469l16.7148-16.3281c.300781-.300781.522787-.612305.666016-.93457 .143229-.322265.214844-.676759.214844-1.06348 0-.77344-.29362-1.43229-.880859-1.97656l-16.6934-16.3281c-.257813-.243489-.533529-.429687-.827148-.558594 -.29362-.128906-.619466-.193359-.977539-.193359 -.486979 0-.920246.111003-1.2998.333008 -.379557.222005-.683919.526367-.913086.913086 -.229167.386719-.34375.823569-.34375 1.31055 0 .6875.257813 1.29622.773438 1.82617l16.1348 15.7266v-2.0625l-16.1348 15.6836c-.515625.529948-.773438 1.14583-.773438 1.84766 0 .472656.114583.902343.34375 1.28906 .229167.386719.533529.691081.913086.913086 .379557.222005.812824.333008 1.2998.333008Z" fill="currentColor"></path>
  </defs>
</svg>